<?xml version="1.0" encoding="UTF-8" standalone="no"?>
<!DOCTYPE svg PUBLIC "-//W3C//DTD SVG 1.1//EN"
 "http://www.w3.org/Graphics/SVG/1.1/DTD/svg11.dtd">
<!-- Generated by graphviz version 12.2.0 (20241103.1931)
 -->
<!-- Title: workspace Pages: 1 -->
<svg width="497pt" height="336pt"
 viewBox="0.00 0.00 497.31 336.26" xmlns="http://www.w3.org/2000/svg" xmlns:xlink="http://www.w3.org/1999/xlink">
<g id="graph0" class="graph" transform="scale(1 1) rotate(0) translate(4 332.26)">
<title>workspace</title>
<polygon fill="white" stroke="none" points="-4,4 -4,-332.26 493.31,-332.26 493.31,4 -4,4"/>
<!-- @atj/cli&#45;app -->
<g id="node1" class="node">
<title>@atj/cli&#45;app</title>
<ellipse fill="none" stroke="black" cx="166.16" cy="-81.47" rx="56.98" ry="18"/>
<text text-anchor="middle" x="166.16" y="-76.42" font-family="Times,serif" font-size="14.00">@atj/cli&#45;app</text>
</g>
<!-- @atj/dependency&#45;graph -->
<g id="node2" class="node">
<title>@atj/dependency&#45;graph</title>
<ellipse fill="none" stroke="black" cx="99.46" cy="-49" rx="99.46" ry="18"/>
<text text-anchor="middle" x="99.46" y="-43.95" font-family="Times,serif" font-size="14.00">@atj/dependency&#45;graph</text>
</g>
<!-- @atj/cli&#45;app&#45;&gt;@atj/dependency&#45;graph -->
<g id="edge1" class="edge">
<title>@atj/cli&#45;app&#45;&gt;@atj/dependency&#45;graph</title>
<path fill="none" stroke="black" d="M134.76,-66.19C134.7,-66.15 134.63,-66.12 134.56,-66.09"/>
<polygon fill="black" stroke="black" points="146.24,-67.89 135.72,-66.65 143.18,-74.18 146.24,-67.89"/>
</g>
<!-- @atj/infra&#45;core -->
<g id="node3" class="node">
<title>@atj/infra&#45;core</title>
<ellipse fill="none" stroke="black" cx="230.91" cy="-124.28" rx="67.73" ry="18"/>
<text text-anchor="middle" x="230.91" y="-119.23" font-family="Times,serif" font-size="14.00">@atj/infra&#45;core</text>
</g>
<!-- @atj/cli&#45;app&#45;&gt;@atj/infra&#45;core -->
<g id="edge2" class="edge">
<title>@atj/cli&#45;app&#45;&gt;@atj/infra&#45;core</title>
<path fill="none" stroke="black" d="M191.01,-97.9C192.63,-98.97 194.27,-100.06 195.93,-101.15"/>
<polygon fill="black" stroke="black" points="193.84,-103.97 204.12,-106.57 197.7,-98.13 193.84,-103.97"/>
</g>
<!-- @atj/forms -->
<g id="node5" class="node">
<title>@atj/forms</title>
<ellipse fill="none" stroke="black" cx="316.69" cy="-156.62" rx="53.4" ry="18"/>
<text text-anchor="middle" x="316.69" y="-151.57" font-family="Times,serif" font-size="14.00">@atj/forms</text>
</g>
<!-- @atj/infra&#45;core&#45;&gt;@atj/forms -->
<g id="edge10" class="edge">
<title>@atj/infra&#45;core&#45;&gt;@atj/forms</title>
<path fill="none" stroke="black" d="M270.54,-139.22C270.64,-139.26 270.74,-139.3 270.85,-139.34"/>
<polygon fill="black" stroke="black" points="268.53,-142.21 279.13,-142.46 271,-135.66 268.53,-142.21"/>
</g>
<!-- @atj/common -->
<g id="node10" class="node">
<title>@atj/common</title>
<ellipse fill="none" stroke="black" cx="269.48" cy="-184.51" rx="64.66" ry="18"/>
<text text-anchor="middle" x="269.48" y="-179.46" font-family="Times,serif" font-size="14.00">@atj/common</text>
</g>
<!-- @atj/infra&#45;core&#45;&gt;@atj/common -->
<g id="edge9" class="edge">
<title>@atj/infra&#45;core&#45;&gt;@atj/common</title>
<path fill="none" stroke="black" d="M242.48,-142.35C245.46,-147 248.72,-152.1 251.93,-157.1"/>
<polygon fill="black" stroke="black" points="248.76,-158.65 257.1,-165.18 254.65,-154.87 248.76,-158.65"/>
</g>
<!-- @atj/form&#45;rest&#45;api -->
<g id="node4" class="node">
<title>@atj/form&#45;rest&#45;api</title>
<ellipse fill="none" stroke="black" cx="408.79" cy="-143.6" rx="80.52" ry="18"/>
<text text-anchor="middle" x="408.79" y="-138.55" font-family="Times,serif" font-size="14.00">@atj/form&#45;rest&#45;api</text>
</g>
<!-- @atj/form&#45;rest&#45;api&#45;&gt;@atj/forms -->
<g id="edge3" class="edge">
<title>@atj/form&#45;rest&#45;api&#45;&gt;@atj/forms</title>
<path fill="none" stroke="black" d="M339.93,-153.33C339.88,-153.34 339.83,-153.35 339.77,-153.36"/>
<polygon fill="black" stroke="black" points="350.53,-148.29 341.12,-153.16 351.51,-155.23 350.53,-148.29"/>
</g>
<!-- @atj/database -->
<g id="node7" class="node">
<title>@atj/database</title>
<ellipse fill="none" stroke="black" cx="286.63" cy="-247.14" rx="63.12" ry="18"/>
<text text-anchor="middle" x="286.63" y="-242.09" font-family="Times,serif" font-size="14.00">@atj/database</text>
</g>
<!-- @atj/forms&#45;&gt;@atj/database -->
<g id="edge18" class="edge">
<title>@atj/forms&#45;&gt;@atj/database</title>
<path fill="none" stroke="black" d="M310.61,-174.94C306.49,-187.33 300.97,-203.96 296.26,-218.13"/>
<polygon fill="black" stroke="black" points="293.01,-216.82 293.18,-227.41 299.65,-219.02 293.01,-216.82"/>
</g>
<!-- @atj/forms&#45;&gt;@atj/common -->
<g id="edge17" class="edge">
<title>@atj/forms&#45;&gt;@atj/common</title>
<path fill="none" stroke="black" d="M289.77,-172.52C289.69,-172.57 289.61,-172.62 289.52,-172.67"/>
<polygon fill="black" stroke="black" points="297.41,-163.94 290.58,-172.04 300.97,-169.97 297.41,-163.94"/>
</g>
<!-- @atj/server&#45;doj -->
<g id="node6" class="node">
<title>@atj/server&#45;doj</title>
<ellipse fill="none" stroke="black" cx="334.52" cy="-310.26" rx="68.75" ry="18"/>
<text text-anchor="middle" x="334.52" y="-305.21" font-family="Times,serif" font-size="14.00">@atj/server&#45;doj</text>
</g>
<!-- @atj/server&#45;doj&#45;&gt;@atj/database -->
<g id="edge4" class="edge">
<title>@atj/server&#45;doj&#45;&gt;@atj/database</title>
<path fill="none" stroke="black" d="M320.92,-292.34C316.54,-286.56 311.58,-280.03 306.82,-273.76"/>
<polygon fill="black" stroke="black" points="309.84,-271.94 301.01,-266.09 304.26,-276.17 309.84,-271.94"/>
</g>
<!-- @atj/server -->
<g id="node8" class="node">
<title>@atj/server</title>
<ellipse fill="none" stroke="black" cx="324.23" cy="-235.89" rx="53.91" ry="18"/>
<text text-anchor="middle" x="324.23" y="-230.84" font-family="Times,serif" font-size="14.00">@atj/server</text>
</g>
<!-- @atj/server&#45;doj&#45;&gt;@atj/server -->
<g id="edge5" class="edge">
<title>@atj/server&#45;doj&#45;&gt;@atj/server</title>
<path fill="none" stroke="black" d="M331.98,-291.88C330.88,-283.92 329.56,-274.41 328.33,-265.5"/>
<polygon fill="black" stroke="black" points="331.83,-265.25 326.99,-255.82 324.89,-266.21 331.83,-265.25"/>
</g>
<!-- @atj/database&#45;&gt;@atj/common -->
<g id="edge13" class="edge">
<title>@atj/database&#45;&gt;@atj/common</title>
<path fill="none" stroke="black" d="M281.67,-229.02C280.36,-224.26 278.92,-219 277.5,-213.82"/>
<polygon fill="black" stroke="black" points="280.9,-212.98 274.89,-204.26 274.15,-214.83 280.9,-212.98"/>
</g>
<!-- @atj/server&#45;&gt;@atj/forms -->
<g id="edge23" class="edge">
<title>@atj/server&#45;&gt;@atj/forms</title>
<path fill="none" stroke="black" d="M322.48,-217.5C321.6,-208.2 320.5,-196.68 319.5,-186.17"/>
<polygon fill="black" stroke="black" points="323,-186.03 318.57,-176.41 316.04,-186.7 323,-186.03"/>
</g>
<!-- @atj/server&#45;&gt;@atj/database -->
<g id="edge21" class="edge">
<title>@atj/server&#45;&gt;@atj/database</title>
<path fill="none" stroke="black" d="M286.74,-247.1C286.72,-247.11 286.7,-247.11 286.69,-247.12"/>
<polygon fill="black" stroke="black" points="296.68,-240.45 288.1,-246.69 298.7,-247.16 296.68,-240.45"/>
</g>
<!-- @atj/server&#45;&gt;@atj/common -->
<g id="edge20" class="edge">
<title>@atj/server&#45;&gt;@atj/common</title>
<path fill="none" stroke="black" d="M306,-218.78C302.96,-215.93 299.75,-212.92 296.54,-209.91"/>
<polygon fill="black" stroke="black" points="298.98,-207.4 289.3,-203.11 294.19,-212.5 298.98,-207.4"/>
</g>
<!-- @atj/design -->
<g id="node11" class="node">
<title>@atj/design</title>
<ellipse fill="none" stroke="black" cx="354.98" cy="-183.74" rx="55.45" ry="18"/>
<text text-anchor="middle" x="354.98" y="-178.69" font-family="Times,serif" font-size="14.00">@atj/design</text>
</g>
<!-- @atj/server&#45;&gt;@atj/design -->
<g id="edge22" class="edge">
<title>@atj/server&#45;&gt;@atj/design</title>
<path fill="none" stroke="black" d="M334.82,-217.94C336.09,-215.79 337.4,-213.55 338.73,-211.3"/>
<polygon fill="black" stroke="black" points="341.65,-213.24 343.71,-202.85 335.62,-209.68 341.65,-213.24"/>
</g>
<!-- @atj/auth -->
<g id="node13" class="node">
<title>@atj/auth</title>
<ellipse fill="none" stroke="black" cx="232.77" cy="-252.75" rx="47.26" ry="18"/>
<text text-anchor="middle" x="232.77" y="-247.7" font-family="Times,serif" font-size="14.00">@atj/auth</text>
</g>
<!-- @atj/server&#45;&gt;@atj/auth -->
<g id="edge19" class="edge">
<title>@atj/server&#45;&gt;@atj/auth</title>
<path fill="none" stroke="black" d="M276.63,-244.67C276.5,-244.69 276.37,-244.71 276.24,-244.74"/>
<polygon fill="black" stroke="black" points="286.53,-239.28 277.33,-244.53 287.8,-246.16 286.53,-239.28"/>
</g>
<!-- @atj/spotlight -->
<g id="node9" class="node">
<title>@atj/spotlight</title>
<ellipse fill="none" stroke="black" cx="305.55" cy="-111.36" rx="63.63" ry="18"/>
<text text-anchor="middle" x="305.55" y="-106.31" font-family="Times,serif" font-size="14.00">@atj/spotlight</text>
</g>
<!-- @atj/spotlight&#45;&gt;@atj/forms -->
<g id="edge8" class="edge">
<title>@atj/spotlight&#45;&gt;@atj/forms</title>
<path fill="none" stroke="black" d="M310.08,-129.77C310.1,-129.85 310.13,-129.94 310.15,-130.03"/>
<polygon fill="black" stroke="black" points="306.05,-128.03 311.84,-136.9 312.85,-126.35 306.05,-128.03"/>
</g>
<!-- @atj/spotlight&#45;&gt;@atj/common -->
<g id="edge6" class="edge">
<title>@atj/spotlight&#45;&gt;@atj/common</title>
<path fill="none" stroke="black" d="M296.64,-129.44C292.65,-137.53 287.85,-147.26 283.4,-156.27"/>
<polygon fill="black" stroke="black" points="280.37,-154.51 279.09,-165.03 286.65,-157.61 280.37,-154.51"/>
</g>
<!-- @atj/spotlight&#45;&gt;@atj/design -->
<g id="edge7" class="edge">
<title>@atj/spotlight&#45;&gt;@atj/design</title>
<path fill="none" stroke="black" d="M317.77,-129.25C323.35,-137.43 330.09,-147.29 336.29,-156.37"/>
<polygon fill="black" stroke="black" points="333.35,-158.27 341.88,-164.55 339.13,-154.32 333.35,-158.27"/>
</g>
<!-- @atj/design&#45;&gt;@atj/forms -->
<g id="edge15" class="edge">
<title>@atj/design&#45;&gt;@atj/forms</title>
<path fill="none" stroke="black" d="M331.38,-167.03C331.32,-166.98 331.26,-166.94 331.2,-166.89"/>
<polygon fill="black" stroke="black" points="342.43,-170.56 332.25,-167.64 338.39,-176.28 342.43,-170.56"/>
</g>
<!-- @atj/design&#45;&gt;@atj/common -->
<g id="edge14" class="edge">
<title>@atj/design&#45;&gt;@atj/common</title>
<path fill="none" stroke="black" d="M299.38,-184.24C299.32,-184.24 299.25,-184.24 299.19,-184.24"/>
<polygon fill="black" stroke="black" points="310.48,-180.63 300.51,-184.23 310.55,-187.63 310.48,-180.63"/>
</g>
<!-- @atj/infra&#45;cdktf -->
<g id="node12" class="node">
<title>@atj/infra&#45;cdktf</title>
<ellipse fill="none" stroke="black" cx="349.8" cy="-18" rx="70.8" ry="18"/>
<text text-anchor="middle" x="349.8" y="-12.95" font-family="Times,serif" font-size="14.00">@atj/infra&#45;cdktf</text>
</g>
<!-- @atj/auth&#45;&gt;@atj/database -->
<g id="edge12" class="edge">
<title>@atj/auth&#45;&gt;@atj/database</title>
<path fill="none" stroke="black" d="M278.68,-247.96C278.76,-247.96 278.83,-247.95 278.9,-247.94"/>
<polygon fill="black" stroke="black" points="268.04,-252.6 277.62,-248.08 267.31,-245.64 268.04,-252.6"/>
</g>
<!-- @atj/auth&#45;&gt;@atj/common -->
<g id="edge11" class="edge">
<title>@atj/auth&#45;&gt;@atj/common</title>
<path fill="none" stroke="black" d="M242.41,-234.82C246.09,-227.98 250.38,-220.01 254.45,-212.45"/>
<polygon fill="black" stroke="black" points="257.4,-214.36 259.05,-203.89 251.23,-211.04 257.4,-214.36"/>
</g>
<!-- @atj/docassemble -->
<g id="node14" class="node">
<title>@atj/docassemble</title>
<ellipse fill="none" stroke="black" cx="360.45" cy="-76.9" rx="78.99" ry="18"/>
<text text-anchor="middle" x="360.45" y="-71.85" font-family="Times,serif" font-size="14.00">@atj/docassemble</text>
</g>
<!-- @atj/docassemble&#45;&gt;@atj/forms -->
<g id="edge16" class="edge">
<title>@atj/docassemble&#45;&gt;@atj/forms</title>
<path fill="none" stroke="black" d="M350.52,-94.99C345.04,-104.98 338.11,-117.6 331.95,-128.81"/>
<polygon fill="black" stroke="black" points="329.05,-126.82 327.31,-137.27 335.19,-130.19 329.05,-126.82"/>
</g>
</g>
</svg>
